<svg width="61" height="54" viewBox="0 0 61 54" fill="none" xmlns="http://www.w3.org/2000/svg">
<path d="M10.1667 36H50.8333V11.25H10.1667V36ZM33.0417 40.5V45H43.2083V49.5H17.7917V45H27.9583V40.5H7.60467C7.27069 40.4982 6.9404 40.4381 6.63275 40.3231C6.32509 40.208 6.04613 40.0403 5.81186 39.8296C5.5776 39.6189 5.39265 39.3693 5.26763 39.0951C5.14261 38.821 5.07998 38.5276 5.08333 38.232V9.018C5.08333 7.76475 6.23979 6.75 7.60467 6.75H53.3953C54.7882 6.75 55.9167 7.76025 55.9167 9.01575V38.232C55.9167 39.4853 54.7602 40.5 53.3953 40.5H33.0417Z" fill="black"/>
<g clip-path="url(#clip0_44_169)">
<path d="M30 35.4167C37.364 35.4167 43.3333 29.6339 43.3333 22.5C43.3333 15.3661 37.364 9.58334 30 9.58334C22.636 9.58334 16.6667 15.3661 16.6667 22.5C16.6667 29.6339 22.636 35.4167 30 35.4167Z" stroke="black" stroke-width="4" stroke-linecap="round" stroke-linejoin="round"/>
<path d="M30 21.8542C30.8841 21.8542 31.7319 21.514 32.357 20.9084C32.9821 20.3028 33.3333 19.4814 33.3333 18.625C33.3333 17.7686 32.9821 16.9472 32.357 16.3416C31.7319 15.7361 30.8841 15.3958 30 15.3958C29.1159 15.3958 28.2681 15.7361 27.643 16.3416C27.0179 16.9472 26.6667 17.7686 26.6667 18.625C26.6667 19.4814 27.0179 20.3028 27.643 20.9084C28.2681 21.514 29.1159 21.8542 30 21.8542Z" stroke="black" stroke-width="4" stroke-linejoin="round"/>
<path d="M20.6813 31.7561C20.9107 28.3907 23.8013 25.7292 27.3333 25.7292H32.6667C36.194 25.7292 39.082 28.3836 39.318 31.7425" stroke="black" stroke-width="4" stroke-linecap="round" stroke-linejoin="round"/>
</g>
<defs>
<clipPath id="clip0_44_169">
<rect width="32" height="31" fill="white" transform="translate(14 7)"/>
</clipPath>
</defs>
</svg>
