<svg width="61" height="54" viewBox="0 0 61 54" fill="none" xmlns="http://www.w3.org/2000/svg">
<path d="M10.1667 36H50.8333V11.25H10.1667V36ZM33.0417 40.5V45H43.2083V49.5H17.7917V45H27.9583V40.5H7.60467C7.27069 40.4982 6.9404 40.4381 6.63275 40.3231C6.32509 40.208 6.04613 40.0403 5.81186 39.8296C5.5776 39.6189 5.39265 39.3693 5.26763 39.0951C5.14261 38.821 5.07998 38.5276 5.08333 38.232V9.018C5.08333 7.76475 6.23979 6.75 7.60467 6.75H53.3953C54.7882 6.75 55.9167 7.76025 55.9167 9.01575V38.232C55.9167 39.4853 54.7602 40.5 53.3953 40.5H33.0417Z" fill="black"/>
<path d="M29.5 13.8906C29.7686 13.8906 30.0208 13.9277 30.2568 14.002C30.4928 14.0762 30.7004 14.1844 30.8794 14.3267C31.0584 14.4689 31.1968 14.6266 31.2944 14.7998C31.3921 14.973 31.445 15.1647 31.4531 15.375C31.4531 15.5791 31.4043 15.7708 31.3066 15.9502C31.209 16.1296 31.0666 16.2873 30.8794 16.4233C30.6922 16.5594 30.4847 16.6646 30.2568 16.7388C30.029 16.813 29.7767 16.8532 29.5 16.8594C29.2314 16.8594 28.9792 16.8223 28.7432 16.748C28.5072 16.6738 28.2996 16.5656 28.1206 16.4233C27.9416 16.2811 27.8032 16.1234 27.7056 15.9502C27.6079 15.777 27.555 15.5853 27.5469 15.375C27.5469 15.1709 27.5957 14.9792 27.6934 14.7998C27.791 14.6204 27.9334 14.4627 28.1206 14.3267C28.3078 14.1906 28.5153 14.0854 28.7432 14.0112C28.971 13.937 29.2233 13.8968 29.5 13.8906ZM21.1138 17.4624C21.1138 17.2769 21.1585 17.1037 21.248 16.9429C21.3376 16.7821 21.4596 16.6429 21.6143 16.5254C21.7689 16.4079 21.9561 16.312 22.1758 16.2378C22.3955 16.1636 22.6274 16.1265 22.8716 16.1265C23.1157 16.1265 23.3436 16.1605 23.5552 16.2285C23.7668 16.2965 23.9499 16.3924 24.1045 16.5161C24.2591 16.6398 24.3853 16.7821 24.4829 16.9429C24.5806 17.1037 24.6294 17.2769 24.6294 17.4624C24.6294 17.6479 24.5846 17.8211 24.4951 17.9819C24.4056 18.1427 24.2795 18.285 24.1167 18.4087C23.9539 18.5324 23.7668 18.6283 23.5552 18.6963C23.3436 18.7643 23.1157 18.7983 22.8716 18.7983C22.6274 18.7983 22.3996 18.7643 22.188 18.6963C21.9764 18.6283 21.7892 18.5355 21.6265 18.418C21.4637 18.3005 21.3376 18.1582 21.248 17.9912C21.1585 17.8242 21.1138 17.6479 21.1138 17.4624ZM20.125 21.3125C20.3447 21.3125 20.5482 21.3434 20.7354 21.4053C20.9225 21.4671 21.0853 21.5506 21.2236 21.6558C21.362 21.7609 21.4759 21.8877 21.5654 22.0361C21.6549 22.1846 21.6956 22.3392 21.6875 22.5C21.6875 22.667 21.6468 22.8216 21.5654 22.9639C21.484 23.1061 21.3742 23.2298 21.2358 23.335C21.0975 23.4401 20.9307 23.5267 20.7354 23.5947C20.54 23.6628 20.3366 23.6937 20.125 23.6875C19.9053 23.6875 19.7018 23.6566 19.5146 23.5947C19.3275 23.5329 19.1647 23.4494 19.0264 23.3442C18.888 23.2391 18.7741 23.1123 18.6846 22.9639C18.5951 22.8154 18.5544 22.6608 18.5625 22.5C18.5625 22.333 18.6032 22.1784 18.6846 22.0361C18.7659 21.8939 18.8758 21.7702 19.0142 21.665C19.1525 21.5599 19.3193 21.4733 19.5146 21.4053C19.71 21.3372 19.9134 21.3063 20.125 21.3125ZM21.5044 27.5376C21.5044 27.3953 21.541 27.2624 21.6143 27.1387C21.6875 27.015 21.7852 26.9036 21.9072 26.8047C22.0293 26.7057 22.1717 26.6315 22.3345 26.582C22.4972 26.5326 22.6763 26.5047 22.8716 26.4985C23.0588 26.4985 23.2337 26.5264 23.3965 26.582C23.5592 26.6377 23.7057 26.7119 23.8359 26.8047C23.9661 26.8975 24.0638 27.0057 24.1289 27.1294C24.194 27.2531 24.2306 27.3892 24.2388 27.5376C24.2388 27.6799 24.2021 27.8128 24.1289 27.9365C24.0557 28.0602 23.958 28.1715 23.8359 28.2705C23.7139 28.3695 23.5715 28.4437 23.4087 28.4932C23.2459 28.5426 23.0669 28.5705 22.8716 28.5767C22.6844 28.5767 22.5094 28.5488 22.3467 28.4932C22.1839 28.4375 22.0374 28.3633 21.9072 28.2705C21.777 28.1777 21.6794 28.0695 21.6143 27.9458C21.5492 27.8221 21.5125 27.686 21.5044 27.5376ZM29.5 28.7344C29.8255 28.7344 30.1022 28.821 30.3301 28.9941C30.5579 29.1673 30.6719 29.3776 30.6719 29.625C30.6719 29.8724 30.5579 30.0827 30.3301 30.2559C30.1022 30.429 29.8255 30.5156 29.5 30.5156C29.1745 30.5156 28.8978 30.429 28.6699 30.2559C28.4421 30.0827 28.3281 29.8724 28.3281 29.625C28.3281 29.3776 28.4421 29.1673 28.6699 28.9941C28.8978 28.821 29.1745 28.7344 29.5 28.7344ZM35.1519 27.5376C35.1519 27.3273 35.2454 27.151 35.4326 27.0088C35.6198 26.8665 35.8517 26.7954 36.1284 26.7954C36.4051 26.7954 36.637 26.8665 36.8242 27.0088C37.0114 27.151 37.105 27.3273 37.105 27.5376C37.105 27.7479 37.0114 27.9242 36.8242 28.0664C36.637 28.2087 36.4051 28.2798 36.1284 28.2798C35.8517 28.2798 35.6198 28.2087 35.4326 28.0664C35.2454 27.9242 35.1519 27.7479 35.1519 27.5376ZM38.875 21.9062C39.0866 21.9062 39.2697 21.965 39.4243 22.0825C39.5789 22.2 39.6562 22.3392 39.6562 22.5C39.6562 22.6608 39.5789 22.8 39.4243 22.9175C39.2697 23.035 39.0866 23.0938 38.875 23.0938C38.6634 23.0938 38.4803 23.035 38.3257 22.9175C38.1711 22.8 38.0937 22.6608 38.0937 22.5C38.0937 22.3392 38.1711 22.2 38.3257 22.0825C38.4803 21.965 38.6634 21.9062 38.875 21.9062ZM36.1284 15.8296C36.4214 15.8296 36.6981 15.8729 36.9585 15.9595C37.2189 16.0461 37.4468 16.1636 37.6421 16.312C37.8374 16.4604 37.992 16.6336 38.106 16.8315C38.2199 17.0295 38.2769 17.2397 38.2769 17.4624C38.2769 17.6851 38.2199 17.8953 38.106 18.0933C37.992 18.2912 37.8374 18.4644 37.6421 18.6128C37.4468 18.7612 37.2189 18.8787 36.9585 18.9653C36.6981 19.0519 36.4214 19.0952 36.1284 19.0952C35.8354 19.0952 35.5588 19.0519 35.2983 18.9653C35.0379 18.8787 34.8101 18.7612 34.6147 18.6128C34.4194 18.4644 34.2648 18.2912 34.1509 18.0933C34.0369 17.8953 33.98 17.6851 33.98 17.4624C33.98 17.2397 34.0369 17.0295 34.1509 16.8315C34.2648 16.6336 34.4194 16.4604 34.6147 16.312C34.8101 16.1636 35.0379 16.0461 35.2983 15.9595C35.5588 15.8729 35.8354 15.8296 36.1284 15.8296Z" fill="black"/>
</svg>
