<svg width="61" height="54" viewBox="0 0 61 54" fill="none" xmlns="http://www.w3.org/2000/svg">
<path d="M10.1667 36H50.8333V11.25H10.1667V36ZM33.0417 40.5V45H43.2083V49.5H17.7917V45H27.9583V40.5H7.60467C7.27069 40.4982 6.9404 40.4381 6.63275 40.3231C6.32509 40.208 6.04613 40.0403 5.81186 39.8296C5.5776 39.6189 5.39265 39.3693 5.26763 39.0951C5.14261 38.821 5.07998 38.5276 5.08333 38.232V9.018C5.08333 7.76475 6.23979 6.75 7.60467 6.75H53.3953C54.7882 6.75 55.9167 7.76025 55.9167 9.01575V38.232C55.9167 39.4853 54.7602 40.5 53.3953 40.5H33.0417Z" fill="black"/>
<g clip-path="url(#clip0_44_179)">
<path d="M30 32H42M30 24H42M30 16H42M19 31L22 34L27 29M19 23L22 26L27 21M27 13L22 18L19 15" stroke="black" stroke-width="2"/>
</g>
<defs>
<clipPath id="clip0_44_179">
<rect width="24" height="24" fill="white" transform="translate(18 12)"/>
</clipPath>
</defs>
</svg>
