<svg width="61" height="54" viewBox="0 0 61 54" fill="none" xmlns="http://www.w3.org/2000/svg">
<path d="M10.1667 36H50.8333V11.25H10.1667V36ZM33.0417 40.5V45H43.2083V49.5H17.7917V45H27.9583V40.5H7.60465C7.27068 40.4982 6.94039 40.4381 6.63273 40.3231C6.32507 40.208 6.04611 40.0403 5.81185 39.8296C5.57759 39.6189 5.39264 39.3693 5.26762 39.0951C5.1426 38.821 5.07997 38.5276 5.08332 38.232V9.018C5.08332 7.76475 6.23978 6.75 7.60465 6.75H53.3953C54.7881 6.75 55.9166 7.76025 55.9166 9.01575V38.232C55.9166 39.4853 54.7602 40.5 53.3953 40.5H33.0417Z" fill="black"/>
<path d="M21.6452 13.7288H37.3871C37.648 13.7288 37.8983 13.8252 38.0828 13.9969C38.2673 14.1685 38.371 14.4013 38.371 14.6441V18.3051C38.371 18.5478 38.2673 18.7806 38.0828 18.9523C37.8983 19.1239 37.648 19.2203 37.3871 19.2203H21.6452C21.3842 19.2203 21.134 19.1239 20.9495 18.9523C20.7649 18.7806 20.6613 18.5478 20.6613 18.3051V14.6441C20.6613 14.4013 20.7649 14.1685 20.9495 13.9969C21.134 13.8252 21.3842 13.7288 21.6452 13.7288ZM21.6452 21.0509H37.3871C37.648 21.0509 37.8983 21.1473 38.0828 21.3189C38.2673 21.4906 38.371 21.7234 38.371 21.9661V22.5793L35.9113 21.5634L29.5161 24.1993V26.5424H21.6452C21.3842 26.5424 21.134 26.446 20.9495 26.2743C20.7649 26.1027 20.6613 25.8699 20.6613 25.6271V21.9661C20.6613 21.7234 20.7649 21.4906 20.9495 21.3189C21.134 21.1473 21.3842 21.0509 21.6452 21.0509ZM21.6452 28.3729H29.5161C29.5752 30.4322 30.5 32.4 31.9364 33.8644H21.6452C21.3842 33.8644 21.134 33.768 20.9495 33.5963C20.7649 33.4247 20.6613 33.1919 20.6613 32.9492V29.2881C20.6613 29.0454 20.7649 28.8126 20.9495 28.641C21.134 28.4693 21.3842 28.3729 21.6452 28.3729ZM26.5645 17.3898H27.5484V15.5593H26.5645V17.3898ZM26.5645 24.7119H27.5484V22.8814H26.5645V24.7119ZM26.5645 32.0339H27.5484V30.2034H26.5645V32.0339ZM22.629 15.5593V17.3898H24.5968V15.5593H22.629ZM22.629 22.8814V24.7119H24.5968V22.8814H22.629ZM22.629 30.2034V32.0339H24.5968V30.2034H22.629ZM35.9113 23.7966L40.3387 25.6271V28.3729C40.3387 30.9173 38.4497 33.2878 35.9113 33.8644C33.3729 33.2878 31.4839 30.9173 31.4839 28.3729V25.6271L35.9113 23.7966ZM35.9113 25.5722L33.4516 26.5973V29.0319C33.4516 30.4414 34.5044 31.7593 35.9113 32.0888V25.5722Z" fill="black"/>
</svg>
