<svg width="61" height="54" viewBox="0 0 61 54" fill="none" xmlns="http://www.w3.org/2000/svg">
<path d="M10.1667 36H50.8333V11.25H10.1667V36ZM33.0417 40.5V45H43.2083V49.5H17.7917V45H27.9583V40.5H7.60467C7.27069 40.4982 6.9404 40.4381 6.63275 40.3231C6.32509 40.208 6.04613 40.0403 5.81186 39.8296C5.5776 39.6189 5.39265 39.3693 5.26763 39.0951C5.14261 38.821 5.07998 38.5276 5.08333 38.232V9.018C5.08333 7.76475 6.23979 6.75 7.60467 6.75H53.3953C54.7882 6.75 55.9167 7.76025 55.9167 9.01575V38.232C55.9167 39.4853 54.7602 40.5 53.3953 40.5H33.0417Z" fill="black"/>
<path d="M41 14H21C19.9 14 19 14.9 19 16V30C19 31.1 19.9 32 21 32H41C42.1 32 42.99 31.1 42.99 30L43 16C43 14.9 42.1 14 41 14ZM41 30H21V16H41V30ZM40 17H33V22H40V17ZM39 19L36.5 20.75L34 19V18L36.5 19.75L39 18V19ZM28 23C29.65 23 31 21.65 31 20C31 18.35 29.65 17 28 17C26.35 17 25 18.35 25 20C25 21.65 26.35 23 28 23ZM28 19C28.55 19 29 19.45 29 20C29 20.55 28.55 21 28 21C27.45 21 27 20.55 27 20C27 19.45 27.45 19 28 19ZM34 27.59C34 25.09 30.03 24.01 28 24.01C25.97 24.01 22 25.09 22 27.59V29H34V27.59ZM24.48 27C25.22 26.5 26.7 26 28 26C29.3 26 30.77 26.49 31.52 27H24.48Z" fill="black"/>
</svg>
